PathFileType	4	(X/Y/Z)	pose_F01_0-86.trc
DataRate	CameraRate	NumFrames	NumMarkers	Units	OrigDataRate	OrigDataStartFrame	OrigNumFrames
30	30	7	21	m	30	32	86
Frame#	Time	CHip			RHip			RKnee			RAnkle			RBigToe			RSmallToe			RHeel			LHip			LKnee			LAnkle			LBigToe			LSmallToe			LHeel			Neck			Nose			RShoulder			RElbow			RWrist			LShoulder			LElbow			LWrist			
		X1	Y1	Z1	X2	Y2	Z2	X3	Y3	Z3	X4	Y4	Z4	X5	Y5	Z5	X6	Y6	Z6	X7	Y7	Z7	X8	Y8	Z8	X9	Y9	Z9	X10	Y10	Z10	X11	Y11	Z11	X12	Y12	Z12	X13	Y13	Z13	X14	Y14	Z14	X15	Y15	Z15	X16	Y16	Z16	X17	Y17	Z17	X18	Y18	Z18	X19	Y19	Z19	X20	Y20	Z20	X21	Y21	Z21	
32	1.0666666666666667	-0.26586749507820334	1.8447294064652466	-0.44187396009164803	-0.27729041485664174	1.8428432619453312	-0.37907116575390376	-0.28125984914482827	1.6981156690479116	-0.35897916320502604	-0.2808832914293649	1.5660668969072886	-0.3430766208390667	-0.2560116146535841	1.536047039585572	-0.36309370118170176	-0.26097296348516413	1.5374779331763182	-0.32877767181855017	-0.285361985513754	1.558273364463537	-0.34690487030805595	-0.2550863933116074	1.8472792582255664	-0.5027926654806527	-0.2717034638235534	1.7057510434277232	-0.4623408075351043	-0.27436512989607315	1.578521164600097	-0.4502870580380935	-0.24198919339761044	1.545419695922987	-0.4866867197680297	-0.24639261365146115	1.5541994861559747	-0.5102143956285787	-0.2737024322825411	1.5668226658028506	-0.43578714883629993	-0.27104668801128334	1.9983306094825946	-0.4581482360810632	-0.25184297885044654	2.0436457321607584	-0.47728553130453577	-0.2816785465707224	1.995895048834153	-0.37096001418869906	-0.2603467484543647	1.9403698965397675	-0.3542229087532059	-0.27154478951895006	2.000477055415893	-0.4123939048184181	-0.2582830305481701	2.0012141705910613	-0.5449675627493943	-0.22548333354914232	1.953648965172585	-0.5868487261177423	-0.24522273676379577	2.0069279912850226	-0.5135866689634839
33	1.1	-0.2637541541054433	1.849535754424571	-0.43958304380799174	-0.2752643655028386	1.8470432829438954	-0.376465267926323	-0.2806137954726366	1.7043789634527606	-0.36044414565112315	-0.28241206676397285	1.5669393853209166	-0.3416599844271455	-0.25800349482371887	1.5361907240276427	-0.36098964487926943	-0.2628598515491152	1.5375316432135555	-0.32678968533733443	-0.28518950622966316	1.5597226432395774	-0.34748064839446485	-0.25317023248573717	1.8518328934212596	-0.5002905258758856	-0.2710665283685948	1.7085306407538263	-0.4633865210544972	-0.2738885851580906	1.5754634523732332	-0.4507693559248007	-0.24313973622370938	1.5456552556986771	-0.490022198419854	-0.24759683446322192	1.5548167258323544	-0.5134889256859867	-0.27348665554745616	1.5654786112680552	-0.43602757784110546	-0.2681496854066714	2.0005362146691184	-0.4575172201750991	-0.24951585560573458	2.0510344931665045	-0.4715911822345938	-0.2816820941240903	1.9957794178547237	-0.37086991712050593	-0.2521526089950587	1.9507930471246995	-0.363991501366903	-0.26269389511530605	2.00653013135941	-0.4186425875383204	-0.25523978037270256	2.0035268282849374	-0.5443180984988147	-0.21836745973264957	1.962935300196604	-0.6030712481367777	-0.2407600351470597	2.0176227252833727	-0.5107525545755819
34	1.1333333333333333	-0.2660024699307549	1.8472685021696664	-0.43704612864902587	-0.2757888671568435	1.8435929229202404	-0.3758859507625108	-0.28084259391569955	1.703330106450736	-0.36008119738761274	-0.2821436284371309	1.565303232757013	-0.34181294792988753	-0.25634274969399684	1.5378351555977323	-0.36285800337140023	-0.26130976501969955	1.5393004426162389	-0.3285532226730163	-0.2852298026784306	1.5599434409536128	-0.34740851993373045	-0.253478162336366	1.8494541689251682	-0.4998400143487785	-0.2723038576876139	1.7072615294426994	-0.4663903267617353	-0.2730333213338307	1.5753506228777485	-0.4560811956289508	-0.24421677225999824	1.546092262236407	-0.4934120382160132	-0.2476016298545294	1.5550338631532663	-0.5136265118370297	-0.2734167921031693	1.5652863514643434	-0.4360855546284256	-0.2699542497288662	2.000637056987232	-0.45543633195051103	-0.25139062739057694	2.0519586700826165	-0.4700010422769755	-0.2816632225035376	1.9956313967703503	-0.3707972441441259	-0.2473201059934755	1.9524473930431898	-0.3656047901924144	-0.26080069083478297	2.0081019455990674	-0.42143605504593623	-0.2572719491307507	2.00494286448633	-0.5425614775593056	-0.22486417222562757	1.9655318540407434	-0.5970444543865635	-0.24275977414323022	2.016571971764016	-0.5086104964979733
35	1.1666666666666667	-0.2638579505058652	1.8484777424168406	-0.4394743593046809	-0.27542487749525124	1.845833048969329	-0.3763348687665057	-0.28103323677133774	1.7020249294535759	-0.35966400349183864	-0.2808493038630526	1.5658216228294919	-0.3430822601098981	-0.25441176797878995	1.5376202370515946	-0.3650684866905389	-0.2609914488374722	1.5375526237773112	-0.328938330021339	-0.28512604644624606	1.559458066517896	-0.34740263007291516	-0.25336724393241467	1.8521096784390298	-0.5003810010702575	-0.2712211261560668	1.7070189693734557	-0.4632228358383513	-0.2720474672562549	1.5756133132517816	-0.45289203335684725	-0.2443073224774243	1.5461315560186597	-0.4934119815977828	-0.24770124370597743	1.5551804537903404	-0.5136776930915748	-0.27329165570723163	1.564296353175534	-0.4363178136392162	-0.2700361541190023	1.9981719814602517	-0.45505299289290635	-0.25260039249658983	2.0499793174803123	-0.47346241197928746	-0.2816452731102392	1.9959045489303953	-0.3708102859469652	-0.2493144378552178	1.951435002890357	-0.36334711243521983	-0.26026658357633836	2.0042291068923226	-0.42691375246060537	-0.2572351339560758	2.0036619092319183	-0.542300890418286	-0.22519262981343707	1.9626203050171807	-0.5881235497098393	-0.24325132805144203	2.0117663836754742	-0.5085660772524091
36	1.2	-0.26404122190796747	1.847406566179185	-0.43920211406987514	-0.27452349597912773	1.8446694888262545	-0.3728830957636546	-0.2806228368633179	1.7017635014493069	-0.3599389231799329	-0.28067042792281766	1.5644960558941363	-0.3432493368958701	-0.25443628775428345	1.5379360886422142	-0.36495600050704763	-0.26122635722449916	1.5392287123391133	-0.32863412076092213	-0.2853517819351998	1.5580852730040717	-0.3468676891171454	-0.25345675296636827	1.849534600496233	-0.49990880726603376	-0.269272073832088	1.7071436792846097	-0.4651840648595573	-0.271975347698585	1.5754485709092692	-0.4528427538211729	-0.2444111027909695	1.5467059286446068	-0.49324941917815285	-0.24782870585255126	1.5558916838508392	-0.5135091299322198	-0.2734115033015817	1.5648837078140012	-0.4363494117990857	-0.2701155833147666	1.9980961180708614	-0.4549558619953184	-0.2506338937379674	2.047692651531244	-0.4751002966326647	-0.2823856543832151	1.9941501712764853	-0.3651509300406272	-0.25590987516531327	1.9521167675907554	-0.3601826314037136	-0.2641317299124909	2.001861508432549	-0.421992846520517	-0.25830078415278146	2.0025592480094354	-0.5453159837098104	-0.22340762802054476	1.9598212012530858	-0.5814573149805362	-0.2434866503688809	2.00718794898963	-0.5082087914922028
37	1.2333333333333334	-0.26416471703346606	1.8419689566138957	-0.43821864630869517	-0.27353648350360515	1.8393025019287514	-0.3686521777229039	-0.27958762980809343	1.6988795431917956	-0.3562822309748827	-0.28064167997784706	1.5671143512328622	-0.3435765434252247	-0.25500139404089966	1.536728911489696	-0.35974884903518894	-0.2599407253005917	1.5381088922100818	-0.3254841620127978	-0.28528120582170824	1.5601149606310798	-0.3474731204185551	-0.2535954425242603	1.844051965247099	-0.4990368725905008	-0.2709659511193483	1.7052155953727197	-0.46308982814581634	-0.27194891177316177	1.575221680678034	-0.45287327970787783	-0.24360440338232653	1.5481894099160285	-0.4898060328108877	-0.2470382345710855	1.5574077746853434	-0.510034118118736	-0.2743365965341428	1.5641517480333775	-0.43959409052337683	-0.27010376912660256	1.9958004512969016	-0.45451872833850604	-0.2500022927342857	2.0424886705239382	-0.4715049661928316	-0.280575585524475	1.9943418300826836	-0.3671542904526435	-0.26028249039882095	1.9452796064037436	-0.35502351840928553	-0.2700628369290185	2.002631695139267	-0.41612041045678727	-0.25641518262674917	2.000060527359354	-0.5469873365945905	-0.22264009869126652	1.9547046452606707	-0.5773359405081943	-0.24250299157953903	2.008675207363933	-0.5055178782211286
38	1.2666666666666666	-0.26408837449869066	1.8446618293912287	-0.4386425038021639	-0.2736221620442576	1.8408200606811862	-0.36886209765343264	-0.27998098123681014	1.696697039710968	-0.355454320215061	-0.2806860398275168	1.5646244182383056	-0.3432789548512101	-0.2548108026434302	1.5356917338516223	-0.35975031206365526	-0.25975742415927194	1.5371526230306898	-0.32548900596323976	-0.2853526066344118	1.558142620607081	-0.34692808480319337	-0.2535223307212077	1.8467083630677659	-0.49945508903965	-0.2709928641513521	1.7024669838219508	-0.46274610136802674	-0.2719329283230354	1.5751673159959558	-0.4528810601273992	-0.24314330968521528	1.5458668167763703	-0.4899533604319186	-0.24661346731289435	1.5551594894990255	-0.5102617203887411	-0.27485971514029367	1.5644823461428954	-0.43887723730908795	-0.27000497373466703	1.9968428803945937	-0.4545113517918764	-0.2509119238793055	2.0411677724895854	-0.46574649620610586	-0.28234020117353864	1.9941599673075636	-0.3651849104916278	-0.26097638444665866	1.9435782739374816	-0.349320008562858	-0.2668903418541376	2.0044932488019063	-0.42290772103452656	-0.25636840215331047	1.9986753128059358	-0.5465677200754001	-0.2237759774426986	1.9505334569657282	-0.5711465851511649	-0.24357778368358637	2.006241615798839	-0.49982233602519244
